<mxfile host="app.diagrams.net" agent="Mozilla/5.0 (Windows NT 10.0; Win64; x64) AppleWebKit/537.36 (KHTML, like Gecko) Chrome/137.0.0.0 Safari/537.36" version="27.1.4">
  <diagram name="Pagina-1" id="mdjvDVtbvSi3mFe1u0QP">
    <mxGraphModel dx="1597" dy="1945" grid="1" gridSize="10" guides="1" tooltips="1" connect="1" arrows="1" fold="1" page="1" pageScale="1" pageWidth="827" pageHeight="1169" math="0" shadow="0">
      <root>
        <mxCell id="0" />
        <mxCell id="1" parent="0" />
        <mxCell id="M_cDG0wKZxB5WY032Gbp-1" value="Utenti" style="whiteSpace=wrap;html=1;align=center;" parent="1" vertex="1">
          <mxGeometry x="-60" y="140" width="100" height="40" as="geometry" />
        </mxCell>
        <mxCell id="M_cDG0wKZxB5WY032Gbp-5" value="" style="ellipse;whiteSpace=wrap;html=1;aspect=fixed;" parent="1" vertex="1">
          <mxGeometry height="30" as="geometry" />
        </mxCell>
        <mxCell id="M_cDG0wKZxB5WY032Gbp-6" value="" style="endArrow=none;html=1;rounded=0;startArrow=oval;startFill=1;" parent="1" edge="1">
          <mxGeometry width="50" height="50" relative="1" as="geometry">
            <mxPoint x="-50" y="120" as="sourcePoint" />
            <mxPoint x="-50" y="140" as="targetPoint" />
          </mxGeometry>
        </mxCell>
        <mxCell id="M_cDG0wKZxB5WY032Gbp-7" value="id" style="text;html=1;align=center;verticalAlign=middle;resizable=0;points=[];autosize=1;strokeColor=none;fillColor=none;" parent="1" vertex="1">
          <mxGeometry x="-70" y="90" width="30" height="30" as="geometry" />
        </mxCell>
        <mxCell id="M_cDG0wKZxB5WY032Gbp-8" value="" style="endArrow=none;html=1;rounded=0;startArrow=oval;startFill=0;" parent="1" edge="1">
          <mxGeometry width="50" height="50" relative="1" as="geometry">
            <mxPoint x="-30" y="120" as="sourcePoint" />
            <mxPoint x="-30" y="140" as="targetPoint" />
          </mxGeometry>
        </mxCell>
        <mxCell id="M_cDG0wKZxB5WY032Gbp-9" value="" style="endArrow=none;html=1;rounded=0;startArrow=oval;startFill=0;" parent="1" edge="1">
          <mxGeometry width="50" height="50" relative="1" as="geometry">
            <mxPoint x="-90" y="150" as="sourcePoint" />
            <mxPoint x="-70.57" y="150" as="targetPoint" />
            <Array as="points">
              <mxPoint x="-60" y="150" />
            </Array>
          </mxGeometry>
        </mxCell>
        <mxCell id="M_cDG0wKZxB5WY032Gbp-10" value="" style="endArrow=none;html=1;rounded=0;startArrow=oval;startFill=0;" parent="1" edge="1">
          <mxGeometry width="50" height="50" relative="1" as="geometry">
            <mxPoint y="120" as="sourcePoint" />
            <mxPoint y="140" as="targetPoint" />
          </mxGeometry>
        </mxCell>
        <mxCell id="M_cDG0wKZxB5WY032Gbp-11" value="" style="endArrow=none;html=1;rounded=0;startArrow=oval;startFill=0;" parent="1" edge="1">
          <mxGeometry width="50" height="50" relative="1" as="geometry">
            <mxPoint x="-90" y="170" as="sourcePoint" />
            <mxPoint x="-60" y="170" as="targetPoint" />
          </mxGeometry>
        </mxCell>
        <mxCell id="M_cDG0wKZxB5WY032Gbp-12" value="" style="endArrow=none;html=1;rounded=0;startArrow=oval;startFill=0;entryX=0.833;entryY=-0.029;entryDx=0;entryDy=0;entryPerimeter=0;" parent="1" target="M_cDG0wKZxB5WY032Gbp-1" edge="1">
          <mxGeometry width="50" height="50" relative="1" as="geometry">
            <mxPoint x="30" y="120" as="sourcePoint" />
            <mxPoint x="170" y="130" as="targetPoint" />
            <Array as="points" />
          </mxGeometry>
        </mxCell>
        <mxCell id="M_cDG0wKZxB5WY032Gbp-13" value="nome" style="text;html=1;align=center;verticalAlign=middle;resizable=0;points=[];autosize=1;strokeColor=none;fillColor=none;fontSize=8;" parent="1" vertex="1">
          <mxGeometry x="-50" y="100" width="40" height="20" as="geometry" />
        </mxCell>
        <mxCell id="M_cDG0wKZxB5WY032Gbp-14" value="email" style="text;html=1;align=center;verticalAlign=middle;resizable=0;points=[];autosize=1;strokeColor=none;fillColor=none;" parent="1" vertex="1">
          <mxGeometry x="-135" y="130" width="50" height="30" as="geometry" />
        </mxCell>
        <mxCell id="M_cDG0wKZxB5WY032Gbp-15" value="password" style="text;html=1;align=center;verticalAlign=middle;resizable=0;points=[];autosize=1;strokeColor=none;fillColor=none;" parent="1" vertex="1">
          <mxGeometry x="-160" y="150" width="70" height="30" as="geometry" />
        </mxCell>
        <mxCell id="M_cDG0wKZxB5WY032Gbp-16" value="ruolo" style="text;html=1;align=center;verticalAlign=middle;resizable=0;points=[];autosize=1;strokeColor=none;fillColor=none;" parent="1" vertex="1">
          <mxGeometry x="-25" y="95" width="50" height="30" as="geometry" />
        </mxCell>
        <mxCell id="M_cDG0wKZxB5WY032Gbp-17" value="indirizzo" style="text;html=1;align=center;verticalAlign=middle;resizable=0;points=[];autosize=1;strokeColor=none;fillColor=none;" parent="1" vertex="1">
          <mxGeometry x="10" y="95" width="70" height="30" as="geometry" />
        </mxCell>
        <mxCell id="M_cDG0wKZxB5WY032Gbp-18" value="compra" style="shape=rhombus;perimeter=rhombusPerimeter;whiteSpace=wrap;html=1;align=center;" parent="1" vertex="1">
          <mxGeometry x="250" y="102.5" width="100" height="50" as="geometry" />
        </mxCell>
        <mxCell id="M_cDG0wKZxB5WY032Gbp-19" value="Immagini" style="whiteSpace=wrap;html=1;align=center;" parent="1" vertex="1">
          <mxGeometry x="470" y="400" width="100" height="40" as="geometry" />
        </mxCell>
        <mxCell id="M_cDG0wKZxB5WY032Gbp-20" value="Prodotti" style="whiteSpace=wrap;html=1;align=center;" parent="1" vertex="1">
          <mxGeometry x="440" y="140" width="160" height="40" as="geometry" />
        </mxCell>
        <mxCell id="M_cDG0wKZxB5WY032Gbp-21" value="vende" style="shape=rhombus;perimeter=rhombusPerimeter;whiteSpace=wrap;html=1;align=center;" parent="1" vertex="1">
          <mxGeometry x="260" y="170" width="90" height="50" as="geometry" />
        </mxCell>
        <mxCell id="M_cDG0wKZxB5WY032Gbp-22" value="" style="line;strokeWidth=1;rotatable=0;dashed=0;labelPosition=right;align=left;verticalAlign=middle;spacingTop=0;spacingLeft=6;points=[];portConstraint=eastwest;" parent="1" vertex="1">
          <mxGeometry x="180" y="122.5" width="70" height="10" as="geometry" />
        </mxCell>
        <mxCell id="M_cDG0wKZxB5WY032Gbp-23" value="" style="endArrow=none;html=1;rounded=0;entryX=0;entryY=0.5;entryDx=0;entryDy=0;" parent="1" target="M_cDG0wKZxB5WY032Gbp-21" edge="1">
          <mxGeometry relative="1" as="geometry">
            <mxPoint x="180" y="194.71" as="sourcePoint" />
            <mxPoint x="220" y="194.71" as="targetPoint" />
          </mxGeometry>
        </mxCell>
        <mxCell id="M_cDG0wKZxB5WY032Gbp-24" value="" style="shape=flexArrow;endArrow=classic;html=1;rounded=0;" parent="1" edge="1">
          <mxGeometry width="50" height="50" relative="1" as="geometry">
            <mxPoint x="80" y="160" as="sourcePoint" />
            <mxPoint x="40" y="160" as="targetPoint" />
          </mxGeometry>
        </mxCell>
        <mxCell id="M_cDG0wKZxB5WY032Gbp-25" value="Cliente" style="whiteSpace=wrap;html=1;align=center;" parent="1" vertex="1">
          <mxGeometry x="100" y="115" width="80" height="25" as="geometry" />
        </mxCell>
        <mxCell id="M_cDG0wKZxB5WY032Gbp-26" value="Artigiano" style="whiteSpace=wrap;html=1;align=center;" parent="1" vertex="1">
          <mxGeometry x="100" y="180" width="80" height="30" as="geometry" />
        </mxCell>
        <mxCell id="M_cDG0wKZxB5WY032Gbp-28" value="" style="endArrow=none;html=1;rounded=0;entryX=0;entryY=0;entryDx=0;entryDy=0;exitX=1;exitY=0.5;exitDx=0;exitDy=0;" parent="1" source="M_cDG0wKZxB5WY032Gbp-18" target="M_cDG0wKZxB5WY032Gbp-20" edge="1">
          <mxGeometry relative="1" as="geometry">
            <mxPoint x="140" y="240" as="sourcePoint" />
            <mxPoint x="300" y="240" as="targetPoint" />
          </mxGeometry>
        </mxCell>
        <mxCell id="M_cDG0wKZxB5WY032Gbp-29" value="" style="endArrow=none;html=1;rounded=0;exitX=1;exitY=0.5;exitDx=0;exitDy=0;" parent="1" source="M_cDG0wKZxB5WY032Gbp-21" edge="1">
          <mxGeometry relative="1" as="geometry">
            <mxPoint x="280" y="180" as="sourcePoint" />
            <mxPoint x="440" y="180" as="targetPoint" />
          </mxGeometry>
        </mxCell>
        <mxCell id="M_cDG0wKZxB5WY032Gbp-32" value="" style="endArrow=none;html=1;rounded=0;exitX=0;exitY=0.75;exitDx=0;exitDy=0;" parent="1" edge="1">
          <mxGeometry width="50" height="50" relative="1" as="geometry">
            <mxPoint x="80" y="200" as="sourcePoint" />
            <mxPoint x="80" y="132.5" as="targetPoint" />
          </mxGeometry>
        </mxCell>
        <mxCell id="M_cDG0wKZxB5WY032Gbp-33" value="" style="line;strokeWidth=1;rotatable=0;dashed=0;labelPosition=right;align=left;verticalAlign=middle;spacingTop=0;spacingLeft=6;points=[];portConstraint=eastwest;" parent="1" vertex="1">
          <mxGeometry x="80" y="125" width="20" height="10" as="geometry" />
        </mxCell>
        <mxCell id="M_cDG0wKZxB5WY032Gbp-34" value="" style="line;strokeWidth=1;rotatable=0;dashed=0;labelPosition=right;align=left;verticalAlign=middle;spacingTop=0;spacingLeft=6;points=[];portConstraint=eastwest;" parent="1" vertex="1">
          <mxGeometry x="80" y="190" width="20" height="10" as="geometry" />
        </mxCell>
        <mxCell id="M_cDG0wKZxB5WY032Gbp-35" value="(0,N)" style="text;html=1;align=center;verticalAlign=middle;resizable=0;points=[];autosize=1;strokeColor=none;fillColor=none;" parent="1" vertex="1">
          <mxGeometry x="170" y="100" width="50" height="30" as="geometry" />
        </mxCell>
        <mxCell id="M_cDG0wKZxB5WY032Gbp-36" value="(0,N)" style="text;html=1;align=center;verticalAlign=middle;resizable=0;points=[];autosize=1;strokeColor=none;fillColor=none;" parent="1" vertex="1">
          <mxGeometry x="170" y="170" width="50" height="30" as="geometry" />
        </mxCell>
        <mxCell id="M_cDG0wKZxB5WY032Gbp-37" value="(0,N)" style="text;html=1;align=center;verticalAlign=middle;resizable=0;points=[];autosize=1;strokeColor=none;fillColor=none;" parent="1" vertex="1">
          <mxGeometry x="380" y="100" width="50" height="30" as="geometry" />
        </mxCell>
        <mxCell id="M_cDG0wKZxB5WY032Gbp-38" value="(1,1)" style="text;html=1;align=center;verticalAlign=middle;resizable=0;points=[];autosize=1;strokeColor=none;fillColor=none;" parent="1" vertex="1">
          <mxGeometry x="405" y="180" width="50" height="30" as="geometry" />
        </mxCell>
        <mxCell id="M_cDG0wKZxB5WY032Gbp-39" value="Recensioni" style="whiteSpace=wrap;html=1;align=center;" parent="1" vertex="1">
          <mxGeometry x="260" y="-70" width="100" height="40" as="geometry" />
        </mxCell>
        <mxCell id="M_cDG0wKZxB5WY032Gbp-42" value="ordini" style="whiteSpace=wrap;html=1;align=center;" parent="1" vertex="1">
          <mxGeometry x="-60" y="-200" width="100" height="40" as="geometry" />
        </mxCell>
        <mxCell id="M_cDG0wKZxB5WY032Gbp-44" value="" style="endArrow=none;html=1;rounded=0;startArrow=oval;startFill=1;" parent="1" edge="1">
          <mxGeometry width="50" height="50" relative="1" as="geometry">
            <mxPoint x="450" y="120" as="sourcePoint" />
            <mxPoint x="450" y="140" as="targetPoint" />
          </mxGeometry>
        </mxCell>
        <mxCell id="M_cDG0wKZxB5WY032Gbp-48" value="" style="endArrow=none;html=1;rounded=0;startArrow=oval;startFill=0;" parent="1" edge="1">
          <mxGeometry width="50" height="50" relative="1" as="geometry">
            <mxPoint x="480" y="120" as="sourcePoint" />
            <mxPoint x="480" y="140" as="targetPoint" />
          </mxGeometry>
        </mxCell>
        <mxCell id="M_cDG0wKZxB5WY032Gbp-49" value="" style="endArrow=none;html=1;rounded=0;startArrow=oval;startFill=0;" parent="1" edge="1">
          <mxGeometry width="50" height="50" relative="1" as="geometry">
            <mxPoint x="540" y="120" as="sourcePoint" />
            <mxPoint x="540" y="140" as="targetPoint" />
          </mxGeometry>
        </mxCell>
        <mxCell id="M_cDG0wKZxB5WY032Gbp-52" value="" style="endArrow=none;html=1;rounded=0;startArrow=oval;startFill=0;" parent="1" edge="1">
          <mxGeometry width="50" height="50" relative="1" as="geometry">
            <mxPoint x="480" y="210" as="sourcePoint" />
            <mxPoint x="479.71" y="180" as="targetPoint" />
          </mxGeometry>
        </mxCell>
        <mxCell id="M_cDG0wKZxB5WY032Gbp-53" value="" style="endArrow=none;html=1;rounded=0;startArrow=oval;startFill=0;entryX=1;entryY=0.5;entryDx=0;entryDy=0;" parent="1" target="M_cDG0wKZxB5WY032Gbp-20" edge="1">
          <mxGeometry width="50" height="50" relative="1" as="geometry">
            <mxPoint x="630" y="160" as="sourcePoint" />
            <mxPoint x="620" y="155" as="targetPoint" />
          </mxGeometry>
        </mxCell>
        <mxCell id="M_cDG0wKZxB5WY032Gbp-54" value="" style="endArrow=none;html=1;rounded=0;startArrow=oval;startFill=0;" parent="1" edge="1">
          <mxGeometry width="50" height="50" relative="1" as="geometry">
            <mxPoint x="580" y="200" as="sourcePoint" />
            <mxPoint x="580" y="180" as="targetPoint" />
          </mxGeometry>
        </mxCell>
        <mxCell id="M_cDG0wKZxB5WY032Gbp-56" value="" style="endArrow=none;html=1;rounded=0;startArrow=oval;startFill=0;" parent="1" edge="1">
          <mxGeometry width="50" height="50" relative="1" as="geometry">
            <mxPoint x="590" y="120" as="sourcePoint" />
            <mxPoint x="590" y="140" as="targetPoint" />
          </mxGeometry>
        </mxCell>
        <mxCell id="M_cDG0wKZxB5WY032Gbp-58" value="id" style="text;html=1;align=center;verticalAlign=middle;resizable=0;points=[];autosize=1;strokeColor=none;fillColor=none;" parent="1" vertex="1">
          <mxGeometry x="435" y="88" width="30" height="30" as="geometry" />
        </mxCell>
        <mxCell id="M_cDG0wKZxB5WY032Gbp-59" value="nome" style="text;html=1;align=center;verticalAlign=middle;resizable=0;points=[];autosize=1;strokeColor=none;fillColor=none;" parent="1" vertex="1">
          <mxGeometry x="455" y="92.5" width="50" height="30" as="geometry" />
        </mxCell>
        <mxCell id="M_cDG0wKZxB5WY032Gbp-60" value="descrizione" style="text;html=1;align=center;verticalAlign=middle;resizable=0;points=[];autosize=1;strokeColor=none;fillColor=none;" parent="1" vertex="1">
          <mxGeometry x="560" y="198" width="80" height="30" as="geometry" />
        </mxCell>
        <mxCell id="M_cDG0wKZxB5WY032Gbp-61" value="prezzo" style="text;html=1;align=center;verticalAlign=middle;resizable=0;points=[];autosize=1;strokeColor=none;fillColor=none;" parent="1" vertex="1">
          <mxGeometry x="520" y="92.5" width="60" height="30" as="geometry" />
        </mxCell>
        <mxCell id="M_cDG0wKZxB5WY032Gbp-62" value="disponibilità" style="text;html=1;align=center;verticalAlign=middle;resizable=0;points=[];autosize=1;strokeColor=none;fillColor=none;" parent="1" vertex="1">
          <mxGeometry x="565" y="95" width="90" height="30" as="geometry" />
        </mxCell>
        <mxCell id="M_cDG0wKZxB5WY032Gbp-65" value="data" style="text;html=1;align=center;verticalAlign=middle;resizable=0;points=[];autosize=1;strokeColor=none;fillColor=none;" parent="1" vertex="1">
          <mxGeometry x="455" y="210" width="50" height="30" as="geometry" />
        </mxCell>
        <mxCell id="M_cDG0wKZxB5WY032Gbp-66" value="categoria" style="text;html=1;align=center;verticalAlign=middle;resizable=0;points=[];autosize=1;strokeColor=none;fillColor=none;" parent="1" vertex="1">
          <mxGeometry x="630" y="145" width="70" height="30" as="geometry" />
        </mxCell>
        <mxCell id="M_cDG0wKZxB5WY032Gbp-67" value="scrivere" style="shape=rhombus;perimeter=rhombusPerimeter;whiteSpace=wrap;html=1;align=center;" parent="1" vertex="1">
          <mxGeometry x="90" y="-20" width="100" height="60" as="geometry" />
        </mxCell>
        <mxCell id="M_cDG0wKZxB5WY032Gbp-68" value="riceve" style="shape=rhombus;perimeter=rhombusPerimeter;whiteSpace=wrap;html=1;align=center;" parent="1" vertex="1">
          <mxGeometry x="470" y="-30" width="95" height="60" as="geometry" />
        </mxCell>
        <mxCell id="M_cDG0wKZxB5WY032Gbp-69" value="" style="endArrow=none;html=1;rounded=0;exitX=0.5;exitY=1;exitDx=0;exitDy=0;entryX=0.75;entryY=0;entryDx=0;entryDy=0;" parent="1" source="M_cDG0wKZxB5WY032Gbp-67" target="M_cDG0wKZxB5WY032Gbp-25" edge="1">
          <mxGeometry relative="1" as="geometry">
            <mxPoint x="150" y="40" as="sourcePoint" />
            <mxPoint x="310" y="40" as="targetPoint" />
          </mxGeometry>
        </mxCell>
        <mxCell id="M_cDG0wKZxB5WY032Gbp-70" value="" style="endArrow=none;html=1;rounded=0;exitX=0.5;exitY=0;exitDx=0;exitDy=0;" parent="1" source="M_cDG0wKZxB5WY032Gbp-67" edge="1">
          <mxGeometry relative="1" as="geometry">
            <mxPoint x="100" y="-50.28999999999999" as="sourcePoint" />
            <mxPoint x="260" y="-50.28999999999999" as="targetPoint" />
            <Array as="points">
              <mxPoint x="140" y="-50" />
            </Array>
          </mxGeometry>
        </mxCell>
        <mxCell id="M_cDG0wKZxB5WY032Gbp-71" value="" style="endArrow=none;html=1;rounded=0;entryX=0.5;entryY=0;entryDx=0;entryDy=0;" parent="1" target="M_cDG0wKZxB5WY032Gbp-68" edge="1">
          <mxGeometry relative="1" as="geometry">
            <mxPoint x="360" y="-50" as="sourcePoint" />
            <mxPoint x="520" y="-50" as="targetPoint" />
            <Array as="points">
              <mxPoint x="518" y="-50" />
            </Array>
          </mxGeometry>
        </mxCell>
        <mxCell id="M_cDG0wKZxB5WY032Gbp-72" value="" style="endArrow=none;html=1;rounded=0;exitX=0.5;exitY=0;exitDx=0;exitDy=0;entryX=0.5;entryY=1;entryDx=0;entryDy=0;" parent="1" source="M_cDG0wKZxB5WY032Gbp-20" target="M_cDG0wKZxB5WY032Gbp-68" edge="1">
          <mxGeometry relative="1" as="geometry">
            <mxPoint x="345" y="30" as="sourcePoint" />
            <mxPoint x="505" y="30" as="targetPoint" />
          </mxGeometry>
        </mxCell>
        <mxCell id="M_cDG0wKZxB5WY032Gbp-74" value="(0,N)" style="text;html=1;align=center;verticalAlign=middle;resizable=0;points=[];autosize=1;strokeColor=none;fillColor=none;" parent="1" vertex="1">
          <mxGeometry x="140" y="58" width="50" height="30" as="geometry" />
        </mxCell>
        <mxCell id="M_cDG0wKZxB5WY032Gbp-75" value="(1,1)" style="text;html=1;align=center;verticalAlign=middle;resizable=0;points=[];autosize=1;strokeColor=none;fillColor=none;" parent="1" vertex="1">
          <mxGeometry x="215" y="-82" width="50" height="30" as="geometry" />
        </mxCell>
        <mxCell id="M_cDG0wKZxB5WY032Gbp-76" value="(1,1)" style="text;html=1;align=center;verticalAlign=middle;resizable=0;points=[];autosize=1;strokeColor=none;fillColor=none;" parent="1" vertex="1">
          <mxGeometry x="355" y="-82" width="50" height="30" as="geometry" />
        </mxCell>
        <mxCell id="M_cDG0wKZxB5WY032Gbp-79" value="(0,N)" style="text;html=1;align=center;verticalAlign=middle;resizable=0;points=[];autosize=1;strokeColor=none;fillColor=none;" parent="1" vertex="1">
          <mxGeometry x="510" y="58" width="50" height="30" as="geometry" />
        </mxCell>
        <mxCell id="M_cDG0wKZxB5WY032Gbp-81" value="" style="endArrow=none;html=1;rounded=0;startArrow=oval;startFill=1;" parent="1" edge="1">
          <mxGeometry width="50" height="50" relative="1" as="geometry">
            <mxPoint x="270" y="-90" as="sourcePoint" />
            <mxPoint x="270" y="-70" as="targetPoint" />
          </mxGeometry>
        </mxCell>
        <mxCell id="M_cDG0wKZxB5WY032Gbp-82" value="id" style="text;html=1;align=center;verticalAlign=middle;resizable=0;points=[];autosize=1;strokeColor=none;fillColor=none;" parent="1" vertex="1">
          <mxGeometry x="255" y="-122" width="30" height="30" as="geometry" />
        </mxCell>
        <mxCell id="M_cDG0wKZxB5WY032Gbp-83" value="" style="endArrow=none;html=1;rounded=0;startArrow=oval;startFill=0;" parent="1" edge="1">
          <mxGeometry width="50" height="50" relative="1" as="geometry">
            <mxPoint x="285" y="-10" as="sourcePoint" />
            <mxPoint x="285" y="-30" as="targetPoint" />
          </mxGeometry>
        </mxCell>
        <mxCell id="M_cDG0wKZxB5WY032Gbp-84" value="" style="endArrow=none;html=1;rounded=0;startArrow=oval;startFill=0;" parent="1" edge="1">
          <mxGeometry width="50" height="50" relative="1" as="geometry">
            <mxPoint x="320" y="-90" as="sourcePoint" />
            <mxPoint x="320" y="-70" as="targetPoint" />
          </mxGeometry>
        </mxCell>
        <mxCell id="M_cDG0wKZxB5WY032Gbp-85" value="" style="endArrow=none;html=1;rounded=0;startArrow=oval;startFill=0;" parent="1" edge="1">
          <mxGeometry width="50" height="50" relative="1" as="geometry">
            <mxPoint x="330" y="-10" as="sourcePoint" />
            <mxPoint x="330" y="-30" as="targetPoint" />
          </mxGeometry>
        </mxCell>
        <mxCell id="M_cDG0wKZxB5WY032Gbp-86" value="voto" style="text;html=1;align=center;verticalAlign=middle;resizable=0;points=[];autosize=1;strokeColor=none;fillColor=none;" parent="1" vertex="1">
          <mxGeometry x="255" y="-12" width="50" height="30" as="geometry" />
        </mxCell>
        <mxCell id="M_cDG0wKZxB5WY032Gbp-87" value="commento" style="text;html=1;align=center;verticalAlign=middle;resizable=0;points=[];autosize=1;strokeColor=none;fillColor=none;" parent="1" vertex="1">
          <mxGeometry x="285" y="-122" width="80" height="30" as="geometry" />
        </mxCell>
        <mxCell id="M_cDG0wKZxB5WY032Gbp-88" value="data" style="text;html=1;align=center;verticalAlign=middle;resizable=0;points=[];autosize=1;strokeColor=none;fillColor=none;" parent="1" vertex="1">
          <mxGeometry x="305" y="-12" width="50" height="30" as="geometry" />
        </mxCell>
        <mxCell id="M_cDG0wKZxB5WY032Gbp-89" value="mostrare" style="shape=rhombus;perimeter=rhombusPerimeter;whiteSpace=wrap;html=1;align=center;" parent="1" vertex="1">
          <mxGeometry x="467.5" y="280" width="105" height="60" as="geometry" />
        </mxCell>
        <mxCell id="M_cDG0wKZxB5WY032Gbp-90" value="" style="endArrow=none;html=1;rounded=0;entryX=0.5;entryY=1;entryDx=0;entryDy=0;exitX=0.5;exitY=0;exitDx=0;exitDy=0;" parent="1" source="M_cDG0wKZxB5WY032Gbp-89" target="M_cDG0wKZxB5WY032Gbp-20" edge="1">
          <mxGeometry relative="1" as="geometry">
            <mxPoint x="240" y="280" as="sourcePoint" />
            <mxPoint x="400" y="280" as="targetPoint" />
          </mxGeometry>
        </mxCell>
        <mxCell id="M_cDG0wKZxB5WY032Gbp-91" value="" style="endArrow=none;html=1;rounded=0;entryX=0.5;entryY=1;entryDx=0;entryDy=0;exitX=0.5;exitY=0;exitDx=0;exitDy=0;" parent="1" source="M_cDG0wKZxB5WY032Gbp-19" target="M_cDG0wKZxB5WY032Gbp-89" edge="1">
          <mxGeometry relative="1" as="geometry">
            <mxPoint x="240" y="280" as="sourcePoint" />
            <mxPoint x="400" y="280" as="targetPoint" />
          </mxGeometry>
        </mxCell>
        <mxCell id="M_cDG0wKZxB5WY032Gbp-92" value="(1,1)" style="text;html=1;align=center;verticalAlign=middle;resizable=0;points=[];autosize=1;strokeColor=none;fillColor=none;" parent="1" vertex="1">
          <mxGeometry x="515" y="370" width="50" height="30" as="geometry" />
        </mxCell>
        <mxCell id="M_cDG0wKZxB5WY032Gbp-93" value="(1,N)" style="text;html=1;align=center;verticalAlign=middle;resizable=0;points=[];autosize=1;strokeColor=none;fillColor=none;" parent="1" vertex="1">
          <mxGeometry x="510" y="180" width="50" height="30" as="geometry" />
        </mxCell>
        <mxCell id="M_cDG0wKZxB5WY032Gbp-94" value="" style="endArrow=none;html=1;rounded=0;startArrow=oval;startFill=1;" parent="1" edge="1">
          <mxGeometry width="50" height="50" relative="1" as="geometry">
            <mxPoint x="490" y="460" as="sourcePoint" />
            <mxPoint x="490" y="440" as="targetPoint" />
          </mxGeometry>
        </mxCell>
        <mxCell id="M_cDG0wKZxB5WY032Gbp-95" value="" style="endArrow=none;html=1;rounded=0;startArrow=oval;startFill=0;" parent="1" edge="1" source="F1HpJEXt9PfAEh9GkzhX-2">
          <mxGeometry width="50" height="50" relative="1" as="geometry">
            <mxPoint x="549.5" y="458" as="sourcePoint" />
            <mxPoint x="549.5" y="438" as="targetPoint" />
          </mxGeometry>
        </mxCell>
        <mxCell id="M_cDG0wKZxB5WY032Gbp-96" value="" style="endArrow=none;html=1;rounded=0;startArrow=oval;startFill=0;" parent="1" edge="1">
          <mxGeometry width="50" height="50" relative="1" as="geometry">
            <mxPoint x="595" y="419.5" as="sourcePoint" />
            <mxPoint x="570" y="419.5" as="targetPoint" />
          </mxGeometry>
        </mxCell>
        <mxCell id="M_cDG0wKZxB5WY032Gbp-104" value="pagamenti" style="whiteSpace=wrap;html=1;align=center;" parent="1" vertex="1">
          <mxGeometry x="-360" y="-50" width="100" height="50" as="geometry" />
        </mxCell>
        <mxCell id="M_cDG0wKZxB5WY032Gbp-105" value="ordinare" style="shape=rhombus;perimeter=rhombusPerimeter;whiteSpace=wrap;html=1;align=center;" parent="1" vertex="1">
          <mxGeometry x="240" y="-260" width="120" height="60" as="geometry" />
        </mxCell>
        <mxCell id="M_cDG0wKZxB5WY032Gbp-106" value="effettua" style="shape=rhombus;perimeter=rhombusPerimeter;whiteSpace=wrap;html=1;align=center;" parent="1" vertex="1">
          <mxGeometry x="-70" y="-67" width="120" height="60" as="geometry" />
        </mxCell>
        <mxCell id="M_cDG0wKZxB5WY032Gbp-108" value="" style="endArrow=none;html=1;rounded=0;entryX=0.25;entryY=0;entryDx=0;entryDy=0;exitX=0.5;exitY=1;exitDx=0;exitDy=0;" parent="1" source="M_cDG0wKZxB5WY032Gbp-106" target="M_cDG0wKZxB5WY032Gbp-25" edge="1">
          <mxGeometry relative="1" as="geometry">
            <mxPoint x="-25" y="-7" as="sourcePoint" />
            <mxPoint x="135" y="-7" as="targetPoint" />
          </mxGeometry>
        </mxCell>
        <mxCell id="M_cDG0wKZxB5WY032Gbp-109" value="" style="endArrow=none;html=1;rounded=0;entryX=0.5;entryY=1;entryDx=0;entryDy=0;exitX=0.5;exitY=0;exitDx=0;exitDy=0;" parent="1" source="M_cDG0wKZxB5WY032Gbp-106" target="M_cDG0wKZxB5WY032Gbp-42" edge="1">
          <mxGeometry relative="1" as="geometry">
            <mxPoint x="110" y="-160" as="sourcePoint" />
            <mxPoint x="270" y="-160" as="targetPoint" />
          </mxGeometry>
        </mxCell>
        <mxCell id="M_cDG0wKZxB5WY032Gbp-110" value="" style="endArrow=none;html=1;rounded=0;entryX=0;entryY=0.5;entryDx=0;entryDy=0;exitX=1;exitY=0.25;exitDx=0;exitDy=0;" parent="1" source="M_cDG0wKZxB5WY032Gbp-42" target="M_cDG0wKZxB5WY032Gbp-105" edge="1">
          <mxGeometry relative="1" as="geometry">
            <mxPoint x="110" y="-160" as="sourcePoint" />
            <mxPoint x="270" y="-160" as="targetPoint" />
          </mxGeometry>
        </mxCell>
        <mxCell id="M_cDG0wKZxB5WY032Gbp-111" value="" style="endArrow=none;html=1;rounded=0;exitX=0.819;exitY=-0.075;exitDx=0;exitDy=0;exitPerimeter=0;" parent="1" source="M_cDG0wKZxB5WY032Gbp-20" edge="1">
          <mxGeometry relative="1" as="geometry">
            <mxPoint x="200" y="-230.5" as="sourcePoint" />
            <mxPoint x="360" y="-230.5" as="targetPoint" />
            <Array as="points">
              <mxPoint x="590" y="-130" />
            </Array>
          </mxGeometry>
        </mxCell>
        <mxCell id="M_cDG0wKZxB5WY032Gbp-112" value="paga" style="shape=rhombus;perimeter=rhombusPerimeter;whiteSpace=wrap;html=1;align=center;" parent="1" vertex="1">
          <mxGeometry x="-370" y="-210" width="120" height="60" as="geometry" />
        </mxCell>
        <mxCell id="M_cDG0wKZxB5WY032Gbp-113" value="" style="endArrow=none;html=1;rounded=0;entryX=0.5;entryY=1;entryDx=0;entryDy=0;exitX=0.5;exitY=0;exitDx=0;exitDy=0;" parent="1" source="M_cDG0wKZxB5WY032Gbp-104" target="M_cDG0wKZxB5WY032Gbp-112" edge="1">
          <mxGeometry relative="1" as="geometry">
            <mxPoint x="190" y="-130" as="sourcePoint" />
            <mxPoint x="350" y="-130" as="targetPoint" />
          </mxGeometry>
        </mxCell>
        <mxCell id="M_cDG0wKZxB5WY032Gbp-114" value="" style="endArrow=none;html=1;rounded=0;entryX=0;entryY=0.5;entryDx=0;entryDy=0;" parent="1" target="M_cDG0wKZxB5WY032Gbp-42" edge="1">
          <mxGeometry relative="1" as="geometry">
            <mxPoint x="-250" y="-180.5" as="sourcePoint" />
            <mxPoint x="-90" y="-180.5" as="targetPoint" />
          </mxGeometry>
        </mxCell>
        <mxCell id="M_cDG0wKZxB5WY032Gbp-115" value="(0,N)" style="text;html=1;align=center;verticalAlign=middle;resizable=0;points=[];autosize=1;strokeColor=none;fillColor=none;" parent="1" vertex="1">
          <mxGeometry x="100" y="85" width="50" height="30" as="geometry" />
        </mxCell>
        <mxCell id="M_cDG0wKZxB5WY032Gbp-116" value="(1,1)" style="text;html=1;align=center;verticalAlign=middle;resizable=0;points=[];autosize=1;strokeColor=none;fillColor=none;" parent="1" vertex="1">
          <mxGeometry x="-10" y="-160" width="50" height="30" as="geometry" />
        </mxCell>
        <mxCell id="M_cDG0wKZxB5WY032Gbp-117" value="(1,1)" style="text;html=1;align=center;verticalAlign=middle;resizable=0;points=[];autosize=1;strokeColor=none;fillColor=none;" parent="1" vertex="1">
          <mxGeometry x="30" y="-222" width="50" height="30" as="geometry" />
        </mxCell>
        <mxCell id="M_cDG0wKZxB5WY032Gbp-119" value="Text" style="text;html=1;align=center;verticalAlign=middle;resizable=0;points=[];autosize=1;strokeColor=none;fillColor=none;" parent="1" vertex="1">
          <mxGeometry x="570" y="48" width="50" height="30" as="geometry" />
        </mxCell>
        <mxCell id="M_cDG0wKZxB5WY032Gbp-121" value="(0,N)" style="text;html=1;align=center;verticalAlign=middle;resizable=0;points=[];autosize=1;strokeColor=none;fillColor=none;" parent="1" vertex="1">
          <mxGeometry x="575" y="8" width="50" height="30" as="geometry" />
        </mxCell>
        <mxCell id="M_cDG0wKZxB5WY032Gbp-122" value="(1,1)" style="text;html=1;align=center;verticalAlign=middle;resizable=0;points=[];autosize=1;strokeColor=none;fillColor=none;" parent="1" vertex="1">
          <mxGeometry x="-110" y="-210" width="50" height="30" as="geometry" />
        </mxCell>
        <mxCell id="M_cDG0wKZxB5WY032Gbp-123" value="(1,N)" style="text;html=1;align=center;verticalAlign=middle;resizable=0;points=[];autosize=1;strokeColor=none;fillColor=none;" parent="1" vertex="1">
          <mxGeometry x="-315" y="-82" width="50" height="30" as="geometry" />
        </mxCell>
        <mxCell id="F1HpJEXt9PfAEh9GkzhX-1" value="idImm" style="text;html=1;align=center;verticalAlign=middle;resizable=0;points=[];autosize=1;strokeColor=none;fillColor=none;" vertex="1" parent="1">
          <mxGeometry x="450" y="458" width="60" height="30" as="geometry" />
        </mxCell>
        <mxCell id="F1HpJEXt9PfAEh9GkzhX-3" value="" style="endArrow=none;html=1;rounded=0;startArrow=oval;startFill=0;" edge="1" parent="1" target="F1HpJEXt9PfAEh9GkzhX-2">
          <mxGeometry width="50" height="50" relative="1" as="geometry">
            <mxPoint x="549.5" y="458" as="sourcePoint" />
            <mxPoint x="549.5" y="438" as="targetPoint" />
          </mxGeometry>
        </mxCell>
        <mxCell id="F1HpJEXt9PfAEh9GkzhX-2" value="IdProd" style="text;html=1;align=center;verticalAlign=middle;resizable=0;points=[];autosize=1;strokeColor=none;fillColor=none;" vertex="1" parent="1">
          <mxGeometry x="520" y="458" width="60" height="30" as="geometry" />
        </mxCell>
        <mxCell id="F1HpJEXt9PfAEh9GkzhX-4" value="Url" style="text;html=1;align=center;verticalAlign=middle;resizable=0;points=[];autosize=1;strokeColor=none;fillColor=none;" vertex="1" parent="1">
          <mxGeometry x="595" y="405" width="40" height="30" as="geometry" />
        </mxCell>
        <mxCell id="F1HpJEXt9PfAEh9GkzhX-5" value="" style="endArrow=none;html=1;rounded=0;startArrow=oval;startFill=1;" edge="1" parent="1">
          <mxGeometry width="50" height="50" relative="1" as="geometry">
            <mxPoint x="-350" y="20" as="sourcePoint" />
            <mxPoint x="-350" as="targetPoint" />
          </mxGeometry>
        </mxCell>
        <mxCell id="F1HpJEXt9PfAEh9GkzhX-6" value="id" style="text;html=1;align=center;verticalAlign=middle;resizable=0;points=[];autosize=1;strokeColor=none;fillColor=none;" vertex="1" parent="1">
          <mxGeometry x="-370" y="18" width="30" height="30" as="geometry" />
        </mxCell>
        <mxCell id="F1HpJEXt9PfAEh9GkzhX-7" value="" style="endArrow=none;html=1;rounded=0;startArrow=oval;startFill=0;entryX=0;entryY=0.5;entryDx=0;entryDy=0;" edge="1" parent="1" target="M_cDG0wKZxB5WY032Gbp-104">
          <mxGeometry width="50" height="50" relative="1" as="geometry">
            <mxPoint x="-390" y="-25" as="sourcePoint" />
            <mxPoint x="-390" y="-20" as="targetPoint" />
          </mxGeometry>
        </mxCell>
        <mxCell id="F1HpJEXt9PfAEh9GkzhX-8" value="" style="endArrow=none;html=1;rounded=0;startArrow=oval;startFill=0;" edge="1" parent="1">
          <mxGeometry width="50" height="50" relative="1" as="geometry">
            <mxPoint x="-355.5" y="-70" as="sourcePoint" />
            <mxPoint x="-355.5" y="-50" as="targetPoint" />
          </mxGeometry>
        </mxCell>
        <mxCell id="F1HpJEXt9PfAEh9GkzhX-9" value="" style="endArrow=none;html=1;rounded=0;startArrow=oval;startFill=0;" edge="1" parent="1">
          <mxGeometry width="50" height="50" relative="1" as="geometry">
            <mxPoint x="-310.5" y="20" as="sourcePoint" />
            <mxPoint x="-310.5" as="targetPoint" />
          </mxGeometry>
        </mxCell>
        <mxCell id="F1HpJEXt9PfAEh9GkzhX-10" value="metodo" style="text;html=1;align=center;verticalAlign=middle;resizable=0;points=[];autosize=1;strokeColor=none;fillColor=none;" vertex="1" parent="1">
          <mxGeometry x="-390" y="-102" width="60" height="30" as="geometry" />
        </mxCell>
        <mxCell id="F1HpJEXt9PfAEh9GkzhX-11" value="stato" style="text;html=1;align=center;verticalAlign=middle;resizable=0;points=[];autosize=1;strokeColor=none;fillColor=none;" vertex="1" parent="1">
          <mxGeometry x="-445" y="-42" width="50" height="30" as="geometry" />
        </mxCell>
        <mxCell id="F1HpJEXt9PfAEh9GkzhX-12" value="importo_tot" style="text;html=1;align=center;verticalAlign=middle;resizable=0;points=[];autosize=1;strokeColor=none;fillColor=none;" vertex="1" parent="1">
          <mxGeometry x="-350" y="18" width="80" height="30" as="geometry" />
        </mxCell>
        <mxCell id="F1HpJEXt9PfAEh9GkzhX-13" value="" style="endArrow=none;html=1;rounded=0;startArrow=oval;startFill=0;entryX=0;entryY=0.5;entryDx=0;entryDy=0;" edge="1" parent="1">
          <mxGeometry width="50" height="50" relative="1" as="geometry">
            <mxPoint x="-230" y="-25.5" as="sourcePoint" />
            <mxPoint x="-260" y="-25.5" as="targetPoint" />
          </mxGeometry>
        </mxCell>
        <mxCell id="F1HpJEXt9PfAEh9GkzhX-14" value="data" style="text;html=1;align=center;verticalAlign=middle;resizable=0;points=[];autosize=1;strokeColor=none;fillColor=none;" vertex="1" parent="1">
          <mxGeometry x="-235" y="-42" width="50" height="30" as="geometry" />
        </mxCell>
      </root>
    </mxGraphModel>
  </diagram>
</mxfile>
